<?xml version="1.0" encoding="UTF-8"?>
<!DOCTYPE svg PUBLIC "-//W3C//DTD SVG 1.1//EN" "http://www.w3.org/Graphics/SVG/1.1/DTD/svg11.dtd">
<svg xmlns="http://www.w3.org/2000/svg" version="1.1" width="32px" height="32px" style="shape-rendering:geometricPrecision; text-rendering:geometricPrecision; image-rendering:optimizeQuality; fill-rule:evenodd; clip-rule:evenodd" xmlns:xlink="http://www.w3.org/1999/xlink">
<g><path style="opacity:0.893" fill="#73ebc8" d="M 2.5,-0.5 C 10.5,-0.5 18.5,-0.5 26.5,-0.5C 26.5,0.833333 26.5,2.16667 26.5,3.5C 25.5,3.5 24.5,3.5 23.5,3.5C 16.8465,4.79062 10.1798,4.79062 3.5,3.5C 2.76589,2.29208 2.43255,0.95875 2.5,-0.5 Z"/></g>
<g><path style="opacity:0.682" fill="#72efc5" d="M 3.5,4.5 C 3.5,5.83333 3.5,7.16667 3.5,8.5C 2.5,8.5 1.5,8.5 0.5,8.5C 0.0882357,6.02741 1.08824,4.69408 3.5,4.5 Z"/></g>
<g><path style="opacity:0.653" fill="#77efc6" d="M 24.5,4.5 C 28.2407,3.59853 30.2407,4.93186 30.5,8.5C 28.5,8.5 26.5,8.5 24.5,8.5C 24.5,7.16667 24.5,5.83333 24.5,4.5 Z"/></g>
<g><path style="opacity:1" fill="#2ca6ec" d="M 3.5,3.5 C 10.1798,4.79062 16.8465,4.79062 23.5,3.5C 23.5,4.16667 23.8333,4.5 24.5,4.5C 24.5,5.83333 24.5,7.16667 24.5,8.5C 17.5,8.5 10.5,8.5 3.5,8.5C 3.5,7.16667 3.5,5.83333 3.5,4.5C 3.5,4.16667 3.5,3.83333 3.5,3.5 Z"/></g>
<g><path style="opacity:0.984" fill="#68adef" d="M 3.5,8.5 C 10.5,8.5 17.5,8.5 24.5,8.5C 24.5,9.16667 24.5,9.83333 24.5,10.5C 22.088,10.3305 19.9214,10.9972 18,12.5C 16.6667,11.1667 15.3333,11.1667 14,12.5C 13.0497,11.9777 12.2164,11.311 11.5,10.5C 10.7836,11.311 9.95027,11.9777 9,12.5C 7.40287,11.1153 5.56954,10.4486 3.5,10.5C 3.5,9.83333 3.5,9.16667 3.5,8.5 Z"/></g>
<g><path style="opacity:1" fill="#86edc9" d="M 24.5,11.5 C 26.8333,11.5 29.1667,11.5 31.5,11.5C 31.5,12.8333 31.5,14.1667 31.5,15.5C 29.8333,15.5 28.1667,15.5 26.5,15.5C 24.8235,14.8166 24.1568,13.4832 24.5,11.5 Z"/></g>
<g><path style="opacity:1" fill="#2186e7" d="M 3.5,10.5 C 5.56954,10.4486 7.40287,11.1153 9,12.5C 9.95027,11.9777 10.7836,11.311 11.5,10.5C 12.2164,11.311 13.0497,11.9777 14,12.5C 15.3333,11.1667 16.6667,11.1667 18,12.5C 19.9214,10.9972 22.088,10.3305 24.5,10.5C 24.5,10.8333 24.5,11.1667 24.5,11.5C 23.5655,12.5676 23.2322,13.901 23.5,15.5C 16.8333,15.5 10.1667,15.5 3.5,15.5C 3.5,13.8333 3.5,12.1667 3.5,10.5 Z"/></g>
<g><path style="opacity:1" fill="#1e74e2" d="M 3.5,15.5 C 10.1667,15.5 16.8333,15.5 23.5,15.5C 23.5858,16.4959 23.2524,17.3292 22.5,18C 18.8484,18.4986 15.1817,18.6653 11.5,18.5C 8.72766,18.5952 6.72766,19.9285 5.5,22.5C 4.91395,22.2907 4.41395,21.9574 4,21.5C 3.50454,19.5273 3.33788,17.5273 3.5,15.5 Z"/></g>
<g><path style="opacity:1" fill="#23acdf" d="M 24.5,11.5 C 24.1568,13.4832 24.8235,14.8166 26.5,15.5C 26.5,15.8333 26.5,16.1667 26.5,16.5C 26.7035,18.3904 26.0368,19.8904 24.5,21C 20.1794,21.499 15.8461,21.6657 11.5,21.5C 11.5,20.5 11.5,19.5 11.5,18.5C 15.1817,18.6653 18.8484,18.4986 22.5,18C 23.2524,17.3292 23.5858,16.4959 23.5,15.5C 23.2322,13.901 23.5655,12.5676 24.5,11.5 Z"/></g>
<g><path style="opacity:1" fill="#86ecca" d="M -0.5,15.5 C 0.833333,15.5 2.16667,15.5 3.5,15.5C 3.33788,17.5273 3.50454,19.5273 4,21.5C 4.41395,21.9574 4.91395,22.2907 5.5,22.5C 6.72766,19.9285 8.72766,18.5952 11.5,18.5C 11.5,19.5 11.5,20.5 11.5,21.5C 11.5,22.8333 11.5,24.1667 11.5,25.5C 7.5,25.5 3.5,25.5 -0.5,25.5C -0.5,24.1667 -0.5,22.8333 -0.5,21.5C 2.16667,20.8333 2.16667,20.1667 -0.5,19.5C -0.5,18.1667 -0.5,16.8333 -0.5,15.5 Z"/></g>
<g><path style="opacity:1" fill="#2dbde5" d="M 26.5,16.5 C 27.4511,17.9187 27.7845,19.5853 27.5,21.5C 27.5,22.8333 27.5,24.1667 27.5,25.5C 27.5,26.1667 27.5,26.8333 27.5,27.5C 26.0086,30.2296 24.6752,30.063 23.5,27C 19.5138,26.5012 15.5138,26.3345 11.5,26.5C 11.5,26.1667 11.5,25.8333 11.5,25.5C 11.5,24.1667 11.5,22.8333 11.5,21.5C 15.8461,21.6657 20.1794,21.499 24.5,21C 26.0368,19.8904 26.7035,18.3904 26.5,16.5 Z"/></g>
<g><path style="opacity:0.267" fill="#73efc5" d="M 27.5,21.5 C 30.0219,22.6649 30.0219,23.9982 27.5,25.5C 27.5,24.1667 27.5,22.8333 27.5,21.5 Z"/></g>
<g><path style="opacity:0.801" fill="#76eec6" d="M 11.5,26.5 C 15.5138,26.3345 19.5138,26.5012 23.5,27C 24.6752,30.063 26.0086,30.2296 27.5,27.5C 28.5,27.5 29.5,27.5 30.5,27.5C 30.5,28.8333 30.5,30.1667 30.5,31.5C 22.8333,31.5 15.1667,31.5 7.5,31.5C 7.5,30.1667 7.5,28.8333 7.5,27.5C 9.09903,27.7678 10.4324,27.4345 11.5,26.5 Z"/></g>
</svg>
